<?xml version="1.0" encoding="utf-8"?><svg xmlns="http://www.w3.org/2000/svg" version="1.2" baseProfile="tiny" viewBox="0 0 900 900"><rect width="900" height="900" fill="#ffffff" /><g transform="translate(0,25)"><g transform="translate(0.000000,849.000000) scale(0.100000,-0.100000)" fill="#fe5f00" stroke="none"><path d="M4390 8339 c-52 -38 -102 -73 -110 -76 -8 -4 -24 -15 -34 -25 -11 -10 -38 -30 -60 -45 -23 -15 -67 -47 -98 -70 -31 -24 -60 -43 -64 -43 -4 0 -37 -24 -73 -53 -36 -29 -91 -70 -121 -90 -30 -20 -78 -53 -107 -74 -29 -21 -78 -56 -110 -78 -32 -22 -111 -79 -175 -127 -64 -49 -120 -88 -123 -88 -5 0 -82 -56 -140 -102 -52 -42 -266 -198 -270 -198 -4 0 -41 -26 -83 -57 -42 -31 -104 -76 -137 -100 -33 -24 -126 -93 -207 -153 -81 -61 -152 -110 -158 -110 -5 0 -10 -4 -10 -8 0 -4 -31 -30 -70 -57 -38 -28 -144 -104 -234 -170 -151 -110 -275 -201 -384 -279 -24 -17 -61 -46 -84 -64 -23 -18 -50 -38 -62 -44 -12 -6 -47 -31 -78 -55 -31 -23 -61 -43 -67 -43 -6 0 -11 -4 -11 -9 0 -5 -21 -23 -47 -40 -27 -17 -73 -49 -103 -72 -30 -22 -77 -56 -105 -75 -27 -19 -69 -49 -91 -67 -23 -17 -94 -70 -158 -117 -64 -47 -149 -109 -189 -138 -40 -29 -97 -71 -127 -92 -30 -22 -75 -56 -100 -74 -25 -19 -50 -35 -56 -35 -6 -1 -19 -10 -29 -21 -9 -10 -47 -39 -84 -64 -36 -25 -81 -58 -100 -74 l-34 -28 13 -55 c7 -29 18 -72 25 -94 7 -22 20 -67 29 -100 10 -33 22 -73 28 -90 5 -16 14 -46 18 -65 5 -19 20 -69 35 -110 42 -120 55 -164 55 -181 0 -9 7 -30 15 -45 8 -16 15 -37 15 -47 0 -11 6 -33 14 -50 7 -18 21 -59 31 -92 10 -33 22 -71 27 -84 5 -13 24 -73 43 -135 19 -61 40 -124 46 -141 6 -16 15 -46 19 -65 10 -42 57 -183 76 -227 8 -17 14 -36 14 -42 0 -9 72 -241 102 -326 5 -16 13 -46 17 -65 4 -19 13 -44 19 -55 11 -19 54 -147 88 -265 18 -60 38 -117 60 -168 8 -18 14 -41 14 -52 0 -10 6 -31 14 -47 16 -30 55 -146 87 -258 12 -38 27 -86 34 -105 7 -19 27 -77 45 -140 17 -58 37 -118 44 -135 7 -16 27 -77 45 -135 19 -58 40 -120 47 -138 8 -18 14 -43 14 -57 0 -13 6 -36 14 -52 8 -15 24 -57 35 -93 11 -36 25 -78 30 -95 45 -129 101 -307 101 -318 0 -8 7 -28 15 -43 8 -16 15 -39 15 -50 0 -12 11 -46 24 -75 13 -30 27 -70 31 -89 4 -19 13 -48 20 -65 7 -16 21 -57 30 -90 10 -33 23 -76 30 -95 7 -19 21 -62 30 -95 10 -33 21 -70 26 -83 28 -73 109 -325 109 -338 0 -8 7 -28 15 -44 l16 -30 263 0 263 0 11 25 c7 14 12 37 12 51 0 14 6 40 14 57 8 18 16 46 19 62 2 17 10 53 17 80 59 240 70 291 70 323 0 16 6 45 14 64 16 38 35 256 43 490 6 171 -17 443 -42 508 -7 19 -21 73 -30 120 -10 47 -24 104 -31 128 -8 23 -14 55 -14 70 0 15 -5 43 -11 62 -5 19 -14 55 -18 80 -11 55 -25 96 -62 177 -16 35 -29 77 -29 95 0 17 -6 39 -13 47 -7 9 -24 43 -36 76 -12 33 -31 82 -47 116 -15 34 -28 67 -28 74 0 7 -6 21 -14 29 -7 9 -30 48 -50 86 -48 90 -53 99 -103 167 -24 31 -43 59 -43 62 0 3 -13 24 -29 48 -56 84 -186 376 -210 473 -4 17 -13 40 -19 52 -7 12 -12 31 -12 43 0 12 -6 34 -14 48 -23 46 -38 95 -47 157 -5 33 -14 73 -19 89 -6 16 -10 45 -10 65 0 20 -8 56 -17 81 -14 37 -16 89 -17 310 0 200 3 272 13 295 7 17 17 53 21 80 24 140 47 216 94 312 14 29 26 59 26 67 0 8 4 17 9 21 5 3 13 20 16 38 4 17 13 43 20 57 12 24 31 65 106 230 19 41 59 108 89 150 31 41 86 121 124 178 37 56 72 102 77 102 5 0 9 6 9 13 0 15 107 141 138 163 12 8 40 40 63 70 22 30 44 54 50 54 11 0 95 62 189 140 93 76 258 183 383 247 15 8 27 18 27 22 0 10 169 93 215 104 11 3 45 15 75 27 30 12 71 26 90 30 19 4 51 13 70 19 19 6 49 11 65 11 17 0 36 5 42 11 14 14 124 33 328 56 186 22 805 25 950 5 144 -20 258 -43 288 -58 16 -8 41 -14 55 -14 15 0 47 -6 72 -14 25 -8 72 -22 105 -32 99 -28 158 -46 200 -60 23 -8 46 -14 52 -14 20 0 163 -71 163 -81 0 -5 9 -9 21 -9 27 0 229 -98 298 -144 29 -20 55 -36 57 -36 15 0 102 -72 221 -186 132 -126 225 -240 275 -339 51 -100 88 -179 88 -189 0 -6 11 -28 25 -48 25 -37 40 -75 76 -188 12 -36 27 -78 34 -95 7 -16 27 -77 45 -135 18 -58 39 -122 46 -143 8 -20 14 -48 14 -60 0 -13 4 -27 9 -32 11 -11 41 -113 48 -165 3 -19 12 -44 19 -55 8 -11 14 -27 14 -36 0 -9 7 -22 15 -29 22 -18 21 -346 0 -374 -8 -11 -15 -29 -15 -40 0 -12 -7 -34 -15 -50 -33 -62 -14 -176 35 -212 8 -7 37 -54 63 -105 27 -52 57 -107 68 -124 10 -16 22 -37 26 -45 3 -8 9 -17 13 -20 8 -7 110 -160 110 -166 0 -2 23 -35 51 -72 28 -36 56 -78 63 -92 6 -14 30 -58 53 -98 24 -40 43 -79 43 -86 0 -7 6 -19 14 -25 7 -6 24 -43 36 -81 28 -88 22 -154 -21 -221 -40 -62 -156 -172 -199 -188 -19 -7 -42 -17 -50 -22 -8 -5 -24 -13 -35 -18 -23 -10 -37 -36 -55 -101 -13 -46 -37 -183 -46 -255 -3 -22 -11 -62 -19 -90 -8 -27 -19 -79 -25 -115 -6 -36 -15 -84 -20 -107 -26 -113 -30 -155 -35 -383 -6 -261 -17 -347 -46 -382 -11 -11 -19 -27 -19 -34 0 -6 -28 -41 -62 -76 -47 -47 -78 -69 -123 -87 -33 -13 -74 -29 -92 -37 -17 -8 -43 -14 -58 -14 -14 0 -36 -5 -48 -11 -21 -12 -43 -15 -286 -44 -73 -8 -139 -19 -145 -23 -6 -4 -130 -9 -276 -12 l-265 -5 -67 -85 c-38 -47 -68 -91 -68 -98 0 -8 -6 -26 -14 -40 -8 -15 -21 -74 -30 -132 -17 -118 -31 -472 -20 -538 l7 -42 877 0 878 0 10 28 c6 15 25 72 42 127 18 55 37 111 43 125 5 14 13 41 17 60 5 19 14 51 20 70 7 19 18 51 25 70 10 29 46 141 98 310 6 19 17 44 24 55 7 11 13 30 13 42 0 12 6 37 14 55 7 18 21 60 31 93 10 33 30 96 45 140 75 218 112 333 120 365 4 19 13 49 19 65 36 100 94 275 101 305 9 38 25 86 47 137 7 17 13 39 13 50 1 10 7 29 15 43 8 14 14 35 15 47 0 12 6 37 14 55 8 18 31 86 52 151 20 65 41 120 46 123 4 3 8 16 8 28 0 13 12 54 26 92 14 38 30 88 35 111 4 23 12 50 17 60 13 24 90 259 101 303 4 19 13 46 18 60 6 14 18 52 28 85 9 33 23 76 30 95 22 61 96 284 105 315 4 17 13 44 19 60 6 17 31 98 57 180 25 83 50 160 55 173 11 27 73 217 94 287 8 28 40 124 71 215 30 91 59 181 64 200 9 39 26 88 46 138 8 18 14 41 14 52 0 11 6 34 14 52 22 52 56 161 56 179 0 8 -25 33 -55 55 -31 21 -126 91 -213 154 -86 63 -177 130 -202 148 -25 18 -108 78 -185 135 -77 56 -153 111 -170 122 -16 10 -119 85 -228 167 -108 81 -200 148 -202 148 -10 0 -105 74 -105 82 0 4 -5 8 -10 8 -6 0 -45 26 -88 57 -155 114 -227 168 -232 173 -3 3 -23 17 -45 32 -22 15 -65 45 -95 67 -30 22 -73 53 -95 68 -22 15 -102 74 -178 130 -75 57 -139 103 -142 103 -4 0 -87 59 -195 139 -57 43 -356 261 -445 326 -27 19 -84 60 -125 90 -100 72 -187 137 -204 153 -8 6 -17 12 -21 12 -4 0 -32 19 -63 43 -31 23 -75 55 -97 70 -22 15 -66 46 -97 70 -50 37 -291 209 -373 267 -16 11 -68 49 -115 83 -47 34 -93 67 -102 72 -9 6 -68 47 -130 92 -62 45 -132 96 -155 113 -23 16 -50 30 -60 29 -10 0 -61 -32 -113 -70z"/><path d="M4843 6187 c-39 -18 -74 -39 -76 -48 -2 -9 0 -38 4 -65 22 -126 22 -148 -1 -196 -23 -50 -85 -113 -126 -128 -14 -6 -65 -10 -114 -10 l-89 0 -13 -42 c-6 -24 -12 -79 -13 -123 l0 -80 60 -19 c134 -42 182 -81 211 -173 15 -48 15 -60 3 -110 -7 -33 -25 -70 -41 -89 -48 -55 -32 -97 65 -172 65 -50 93 -53 133 -11 16 17 49 45 73 62 41 28 52 31 122 30 66 0 85 -5 123 -27 25 -15 46 -31 46 -35 0 -5 16 -28 35 -51 19 -23 35 -47 35 -54 0 -6 9 -17 20 -24 22 -13 51 -7 141 32 37 15 89 68 89 89 0 7 -7 25 -16 42 -8 16 -16 57 -17 91 -2 53 2 65 29 100 17 21 40 55 52 76 13 20 30 39 39 43 10 3 62 9 116 12 93 6 99 7 111 32 18 34 37 159 30 189 -7 25 -80 62 -122 62 -23 0 -83 30 -108 55 -19 19 -54 106 -54 136 0 28 11 62 51 161 29 70 25 88 -28 140 -67 64 -108 86 -131 70 -9 -7 -24 -15 -32 -19 -8 -3 -36 -25 -62 -48 -83 -74 -136 -89 -216 -61 -51 18 -67 35 -166 170 -26 35 -71 33 -163 -7z m368 -391 c30 -7 73 -25 95 -38 43 -28 94 -88 94 -112 0 -8 4 -17 9 -20 5 -4 12 -40 16 -80 6 -60 4 -79 -9 -97 -9 -13 -16 -30 -16 -38 0 -15 -62 -95 -95 -123 -27 -23 -121 -58 -154 -58 -45 0 -145 39 -185 72 -84 69 -123 180 -101 286 11 54 56 142 73 142 4 0 22 13 39 29 57 52 127 63 234 37z"/><path d="M3010 5859 c-120 -49 -125 -52 -128 -98 -2 -23 4 -68 12 -102 26 -98 22 -118 -34 -195 -27 -38 -50 -71 -50 -75 0 -17 -81 -41 -122 -36 -23 3 -85 11 -137 17 -51 7 -96 8 -101 3 -4 -4 -29 -57 -55 -117 -36 -82 -46 -113 -38 -125 13 -21 121 -109 153 -124 13 -7 35 -30 47 -52 19 -34 23 -55 23 -137 0 -66 -4 -100 -12 -107 -7 -6 -35 -29 -62 -51 -26 -23 -75 -60 -107 -82 -62 -44 -68 -58 -45 -105 8 -15 23 -48 32 -73 10 -25 27 -60 37 -77 18 -32 22 -33 79 -33 34 0 78 5 99 11 29 9 52 9 101 -2 56 -12 70 -21 122 -73 l58 -58 -5 -132 c-3 -72 -9 -143 -12 -158 -6 -22 -3 -27 17 -33 12 -4 50 -20 83 -35 33 -15 74 -32 90 -37 17 -6 37 -14 46 -17 11 -5 28 10 60 55 90 127 162 179 249 179 91 0 184 -66 236 -167 35 -70 71 -83 152 -58 32 10 64 21 72 26 8 5 27 14 42 20 15 6 30 19 33 30 3 10 1 70 -4 132 -12 120 -8 169 15 188 8 6 14 17 14 24 0 14 66 77 101 96 26 13 209 7 266 -10 41 -12 53 -1 90 77 15 31 32 64 39 72 15 18 20 67 11 95 -4 11 -30 36 -57 55 -47 33 -117 85 -149 111 -21 19 -11 204 14 247 19 32 82 84 157 130 20 13 40 32 43 43 9 28 -4 110 -20 129 -7 8 -19 32 -26 53 -22 64 -43 75 -119 66 -36 -4 -102 -11 -147 -15 l-82 -7 -28 32 c-15 18 -43 49 -60 69 -18 20 -33 44 -33 53 0 8 -5 20 -11 26 -7 7 -9 30 -5 60 18 146 23 219 17 226 -4 4 -33 16 -65 28 -48 16 -124 48 -158 66 -9 5 -50 -37 -123 -127 -34 -41 -74 -79 -92 -87 -18 -7 -68 -13 -111 -13 -96 0 -102 4 -208 136 -88 109 -89 110 -204 63z m598 -570 c26 -12 61 -32 79 -45 17 -13 35 -24 40 -24 4 0 17 -10 29 -23 25 -27 114 -154 114 -164 0 -3 6 -14 13 -22 24 -28 40 -125 33 -193 -14 -143 -25 -183 -72 -270 -28 -51 -152 -156 -212 -178 -31 -12 -62 -26 -69 -32 -22 -18 -249 -11 -307 9 -238 82 -391 371 -317 599 44 138 99 212 221 297 87 61 155 78 298 72 76 -4 115 -10 150 -26z"/><path d="M4792 4268 c-11 -18 -34 -62 -51 -97 -32 -65 -60 -100 -96 -119 -30 -15 -142 -52 -160 -52 -15 0 -126 72 -167 107 -15 13 -22 11 -70 -21 -75 -50 -138 -114 -138 -140 0 -13 20 -58 45 -102 40 -70 45 -85 45 -140 0 -117 -70 -214 -154 -214 -46 0 -106 -31 -123 -63 -13 -27 -14 -41 -2 -119 12 -82 15 -90 44 -107 17 -11 60 -21 103 -25 41 -3 85 -12 98 -19 35 -18 114 -144 114 -182 0 -37 -23 -149 -41 -199 -17 -46 -9 -59 56 -96 89 -51 125 -70 133 -70 4 0 36 25 72 56 87 75 138 98 204 91 96 -10 136 -36 195 -124 69 -102 76 -107 138 -84 89 34 99 39 131 66 l32 27 0 111 0 112 33 35 c17 19 52 51 76 70 l45 35 112 -2 c96 -2 114 0 128 15 18 21 51 110 60 169 l7 41 -76 55 c-94 69 -112 91 -126 157 -18 86 11 165 96 256 19 22 38 49 41 61 8 29 -25 95 -77 156 -47 55 -41 54 -169 18 -41 -11 -85 -21 -96 -21 -20 0 -106 51 -147 88 -29 26 -57 101 -57 153 0 52 -14 99 -33 111 -7 4 -26 8 -43 8 -17 0 -51 7 -74 15 -65 23 -86 20 -108 -17z m98 -486 c50 -10 132 -51 168 -85 42 -39 100 -131 116 -187 43 -145 -10 -301 -136 -402 -66 -53 -172 -98 -229 -98 -68 1 -245 87 -298 145 -72 78 -86 116 -86 235 0 104 0 106 44 193 47 93 86 131 181 174 91 42 129 46 240 25z"/></g></g></svg>
